<svg t="1624958793628" class="icon" viewBox="0 0 1024 1024" version="1.1" xmlns="http://www.w3.org/2000/svg" p-id="1992" width="200" height="200"><path d="M512 199.0656C204.8 199.0656 56.9344 497.4592 56.9344 512c0 14.6432 143.9744 312.9344 455.0656 312.9344 311.0912 0 455.0656-298.2912 455.0656-312.9344 0-14.5408-147.8656-312.9344-455.0656-312.9344z m0 483.6352c-94.208 0-170.7008-76.4928-170.7008-170.7008 0-94.208 76.3904-170.7008 170.7008-170.7008 94.208 0 170.7008 76.3904 170.7008 170.7008 0 94.208-76.4928 170.7008-170.7008 170.7008z m0-256c-47.104 0-85.2992 38.1952-85.2992 85.2992s38.1952 85.2992 85.2992 85.2992 85.2992-38.1952 85.2992-85.2992-38.1952-85.2992-85.2992-85.2992z" fill="#323233" p-id="1993"></path></svg>